<?xml version="1.0" encoding="UTF-8" standalone="no"?>
<svg
   xmlns:dc="http://purl.org/dc/elements/1.1/"
   xmlns:cc="http://creativecommons.org/ns#"
   xmlns:rdf="http://www.w3.org/1999/02/22-rdf-syntax-ns#"
   xmlns:svg="http://www.w3.org/2000/svg"
   xmlns="http://www.w3.org/2000/svg"
   xmlns:sodipodi="http://sodipodi.sourceforge.net/DTD/sodipodi-0.dtd"
   xmlns:inkscape="http://www.inkscape.org/namespaces/inkscape"
   sodipodi:docname="favicon.svg"
   inkscape:version="1.0.2 (e86c870879, 2021-01-15, custom)"
   id="svg8"
   version="1.1"
   viewBox="0 0 100 100"
   height="100"
   width="100"
   inkscape:export-filename="favicon.png"
   inkscape:export-xdpi="122.88"
   inkscape:export-ydpi="122.88">
  <defs
     id="defs2" />
  <sodipodi:namedview
     inkscape:bbox-nodes="true"
     inkscape:bbox-paths="true"
     inkscape:snap-bbox="true"
     inkscape:window-maximized="0"
     inkscape:window-y="79"
     inkscape:window-x="40"
     inkscape:window-height="917"
     inkscape:window-width="1599"
     units="px"
     showgrid="true"
     inkscape:document-rotation="0"
     inkscape:current-layer="layer1"
     inkscape:document-units="px"
     inkscape:cy="51.375783"
     inkscape:cx="34.279799"
     inkscape:zoom="2.8284271"
     inkscape:pageshadow="2"
     inkscape:pageopacity="0.0"
     borderopacity="1.0"
     bordercolor="#666666"
     pagecolor="#ffffff"
     id="base">
    <inkscape:grid
       id="grid833"
       type="xygrid" />
  </sodipodi:namedview>
  <metadata
     id="metadata5">
    <rdf:RDF>
      <cc:Work
         rdf:about="">
        <dc:format>image/svg+xml</dc:format>
        <dc:type
           rdf:resource="http://purl.org/dc/dcmitype/StillImage" />
        <dc:title />
      </cc:Work>
    </rdf:RDF>
  </metadata>
  <g
     id="layer1"
     inkscape:groupmode="layer"
     inkscape:label="レイヤー 1">
    <circle
       style="fill:#ffffff;stroke-width:0.2;stroke-linecap:round;stroke-linejoin:round;stroke-opacity:0.690196"
       id="path832"
       cx="50"
       cy="50"
       r="50" />
    <path
       id="path849"
       style="fill:#000000;stroke-width:5;stroke-linecap:round;stroke-linejoin:round;stroke-opacity:0.690196"
       d="M 49.947266 0 C 22.353623 0.02909917 -1.8654657e-05 22.406342 0 50 C -3.3137093e-06 77.614239 22.385761 100 50 100 C 77.614239 100 100 77.614239 100 50 C 100 22.385761 77.614239 -3.3137092e-06 50 0 L 49.947266 0 z M 46 2 C 46.513372 2.0004547 46.943005 2.3895718 46.994141 2.9003906 L 57.005859 2.9003906 C 57.056995 2.3895718 57.486628 2.0004547 58 2 C 58.552285 2 59 2.4477153 59 3 C 59.000038 3.4537755 58.69453 3.8506944 58.255859 3.9667969 L 58.255859 20.033203 C 58.458268 20.087143 58.638627 20.203284 58.771484 20.365234 L 63.117188 17.46875 C 63.040396 17.324428 63.00016 17.16348 63 17 C 63.000353 16.581348 63.261457 16.207229 63.654297 16.0625 L 63.654297 10.9375 C 63.261457 10.792771 63.000353 10.418652 63 10 C 63 9.4477153 63.447715 9 64 9 C 64.552285 9 65 9.4477153 65 10 C 65.000038 10.453776 64.69453 10.850694 64.255859 10.966797 L 64.255859 16.033203 C 64.658599 16.140205 64.952769 16.485738 64.994141 16.900391 L 69.005859 16.900391 C 69.056995 16.389572 69.486628 16.000455 70 16 C 70.552285 16 71 16.447715 71 17 C 71.000038 17.453776 70.69453 17.850694 70.255859 17.966797 L 70.255859 37.033203 C 70.69453 37.149306 71.000038 37.546224 71 38 C 71 38.552285 70.552285 39 70 39 C 69.447715 39 69 38.552285 69 38 C 69.000763 37.72067 69.118322 37.454391 69.324219 37.265625 L 64.515625 30.855469 C 64.360085 30.949625 64.181818 30.999594 64 31 C 63.447715 31 63 30.552285 63 30 C 63.000353 29.581348 63.261457 29.207229 63.654297 29.0625 L 63.654297 22.9375 C 63.261457 22.792771 63.000353 22.418652 63 22 C 63 21.447715 63.447715 21 64 21 C 64.552285 21 65 21.447715 65 22 C 65.000038 22.453776 64.69453 22.850694 64.255859 22.966797 L 64.255859 29.033203 C 64.69453 29.149306 65.000038 29.546224 65 30 C 65.000285 30.279712 64.883408 30.546758 64.677734 30.736328 L 69.484375 37.144531 C 69.538305 37.111891 69.595197 37.08443 69.654297 37.0625 L 69.654297 17.9375 C 69.295796 17.805061 69.044133 17.479869 69.005859 17.099609 L 64.994141 17.099609 C 64.943005 17.610428 64.513372 17.999545 64 18 C 63.701186 17.999635 63.418193 17.865661 63.228516 17.634766 L 58.882812 20.53125 C 58.959604 20.675572 58.99984 20.83652 59 21 C 59 21.552285 58.552285 22 58 22 C 57.447715 22 57 21.552285 57 21 C 57.000353 20.581348 57.261457 20.207229 57.654297 20.0625 L 57.654297 3.9375 C 57.295796 3.8050608 57.044133 3.4798697 57.005859 3.0996094 L 46.994141 3.0996094 C 46.953031 3.5072478 46.667434 3.8485752 46.273438 3.9609375 L 46.591797 12.544922 L 51.060547 13.662109 C 51.202925 13.265519 51.578627 13.00073 52 13 C 52.552285 13 53 13.447715 53 14 C 53.000038 14.453776 52.69453 14.850694 52.255859 14.966797 L 52.255859 23.033203 C 52.69453 23.149306 53.000038 23.546224 53 24 C 52.999965 24.323416 52.84352 24.626847 52.580078 24.814453 L 59.59375 37.087891 C 59.721516 37.030464 59.859922 37.00052 60 37 C 60.552285 37 61 37.447715 61 38 C 60.999482 38.302168 60.86236 38.587899 60.626953 38.777344 L 68.609375 52.080078 C 68.732887 52.027433 68.865736 52.000199 69 52 C 69.182482 52.00005 69.361471 52.05003 69.517578 52.144531 L 74.322266 45.736328 C 74.116592 45.546758 73.999715 45.279712 74 45 C 74.000353 44.581348 74.261457 44.207229 74.654297 44.0625 L 74.654297 32.9375 C 74.261457 32.792771 74.000353 32.418652 74 32 C 74 31.447715 74.447715 31 75 31 C 75.552285 31 76 31.447715 76 32 C 75.999596 32.0484 75.995701 32.0967 75.988281 32.144531 L 80.654297 33.310547 L 80.654297 14.9375 C 80.261458 14.792771 80.000353 14.418652 80 14 C 80 13.447715 80.447715 13 81 13 C 81.552285 13 82 13.447715 82 14 C 82.000038 14.453776 81.69453 14.850694 81.255859 14.966797 L 81.255859 33.460938 L 86.060547 34.662109 C 86.202925 34.265519 86.578627 34.00073 87 34 C 87.552285 34 88 34.447715 88 35 C 88.000038 35.453776 87.69453 35.850694 87.255859 35.966797 L 87.255859 46.033203 C 87.364492 46.061983 87.467498 46.108863 87.560547 46.171875 L 91.287109 41.699219 C 91.103613 41.512685 91.000538 41.261659 91 41 C 91 40.447715 91.447715 40 92 40 C 92.552285 40 93 40.447715 93 41 C 93.000038 41.453776 92.69453 41.850694 92.255859 41.966797 L 92.255859 66.033203 C 92.69453 66.149306 93.000038 66.546224 93 67 C 93 67.552285 92.552285 68 92 68 C 91.447715 68 91 67.552285 91 67 C 91.000128 66.90683 91.013283 66.814138 91.039062 66.724609 L 87.884766 65.462891 C 87.755087 65.711635 87.526893 65.894473 87.255859 65.966797 L 87.255859 75.033203 C 87.694532 75.149306 88.000038 75.546224 88 76 C 88 76.552285 87.552285 77 87 77 C 86.447715 77 86 76.552285 86 76 C 86.000349 75.878459 86.022846 75.758001 86.066406 75.644531 L 75.84375 70.535156 C 75.709114 70.747916 75.499174 70.902057 75.255859 70.966797 L 75.255859 85.033203 C 75.69453 85.149306 76.000038 85.546224 76 86 C 76 86.552285 75.552285 87 75 87 C 74.76924 86.999755 74.545665 86.919709 74.367188 86.773438 L 73.773438 87.367188 C 73.919709 87.545665 73.999755 87.76924 74 88 C 74 88.552285 73.552285 89 73 89 C 72.447715 89 72 88.552285 72 88 C 72.00052 87.656273 72.177538 87.336902 72.46875 87.154297 L 71.585938 73.908203 C 71.229757 73.746181 71.000801 73.391299 71 73 C 71.000739 72.699854 71.136257 72.415913 71.369141 72.226562 L 68.623047 53.925781 C 68.246484 53.772529 68.000184 53.406554 68 53 C 67.99975 52.89869 68.014902 52.797931 68.044922 52.701172 L 59.814453 38.982422 C 59.581245 38.937942 59.371471 38.811936 59.222656 38.626953 L 44.28125 33.958984 C 44.189931 33.985977 44.095225 33.999789 44 34 C 43.87493 33.999609 43.751042 33.975757 43.634766 33.929688 L 32.759766 36.648438 C 32.57011 36.871092 32.292482 36.999561 32 37 C 31.94432 36.999423 31.888791 36.994205 31.833984 36.984375 L 25.123047 41.177734 L 26.085938 41.417969 C 26.336535 40.593151 27.087441 40.021701 27.949219 40 L 27.951172 40 C 27.967452 39.999801 27.98372 39.999801 28 40 C 29.104569 40 30 40.895431 30 42 C 29.999886 42.04953 29.997941 42.099049 29.994141 42.148438 L 34.029297 42.652344 C 34.194618 41.71413 34.998774 41.022758 35.951172 41 C 35.967452 40.999801 35.98372 40.999801 36 41 C 37.104569 41 38 41.895431 38 43 C 38 44.104569 37.104569 45 36 45 C 34.895431 45 34 44.104569 34 43 C 34.000114 42.95047 34.002059 42.900951 34.005859 42.851562 L 29.970703 42.347656 C 29.801936 43.303759 28.970884 44.000559 28 44 C 26.895431 44 26 43.104569 26 42 C 26.000434 41.870131 26.013523 41.740613 26.039062 41.613281 L 24.939453 41.337891 C 24.809727 41.698858 24.48496 41.953815 24.103516 41.994141 L 19.898438 49.5625 C 19.965027 49.698746 19.999757 49.848352 20 50 C 20.000102 50.244727 19.91046 50.480995 19.748047 50.664062 L 28.335938 59.251953 C 28.414399 59.18291 28.503721 59.127476 28.599609 59.085938 C 28.600439 59.085578 28.600732 59.084341 28.601562 59.083984 A 1 1 0 0 1 29 59 A 1 1 0 0 1 29.199219 59.021484 C 29.305001 59.042955 29.403847 59.081455 29.494141 59.132812 C 29.494664 59.13311 29.495571 59.132514 29.496094 59.132812 A 1 1 0 0 1 29.498047 59.134766 C 29.768892 59.290471 29.958135 59.567893 29.994141 59.890625 L 50.013672 57.162109 C 50.004719 57.108534 50.000147 57.054318 50 57 C 50 56.447715 50.447715 56 51 56 C 51.552285 56 52 56.447715 52 57 C 52 57.552285 51.552285 58 51 58 C 50.84622 58.000043 50.694502 57.96462 50.556641 57.896484 L 45.388672 58.601562 L 47.123047 69.007812 C 47.623834 69.069904 47.999893 69.495379 48 70 C 47.999546 70.414745 47.743127 70.786165 47.355469 70.933594 L 47.355469 85.066406 C 47.743127 85.213835 47.999546 85.585255 48 86 C 47.999717 86.433906 47.719644 86.818119 47.306641 86.951172 L 46.488281 95.128906 C 46.803772 95.305427 46.999424 95.638484 47 96 C 47 96.552285 46.552285 97 46 97 C 45.447715 97 45 96.552285 45 96 C 45.000009 95.566618 45.279176 95.182567 45.691406 95.048828 L 46.509766 86.871094 C 46.195029 86.694067 46.000179 86.361107 46 86 C 46.000437 85.667773 46.165843 85.357455 46.441406 85.171875 L 40.384766 73.923828 L 40.382812 73.923828 C 40.261497 73.974117 40.131369 74.000001 40 74 C 39.447715 74 39 73.552285 39 73 C 39.000266 72.627027 39.208075 72.285198 39.539062 72.113281 L 38.445312 59.546875 L 29.664062 60.746094 C 29.603533 60.800234 29.536634 60.846803 29.464844 60.884766 L 30.052734 65.001953 C 30.58357 65.029985 30.999701 65.468425 31 66 C 31.000237 66.287884 30.876394 66.561905 30.660156 66.751953 L 34.503906 72.132812 C 34.654889 72.04611 34.825893 72.000329 35 72 C 35.552285 72 36 72.447715 36 73 C 35.99998 73.428828 35.726546 73.809907 35.320312 73.947266 L 36.078125 80.003906 C 36.59819 80.04466 36.999557 80.478341 37 81 C 37 81.552285 36.552285 82 36 82 C 35.447715 82 35 81.552285 35 81 C 35.00074 80.646711 35.187838 80.320029 35.492188 80.140625 L 34.71875 73.958984 C 34.29294 73.834187 34.000289 73.443721 34 73 C 34.000324 72.712797 34.124118 72.439598 34.339844 72.25 L 30.496094 66.867188 C 30.345111 66.95389 30.174107 66.999671 30 67 C 29.92637 66.999615 29.85301 66.991099 29.78125 66.974609 L 26.410156 77.087891 C 26.76915 77.24934 27.000037 77.606373 27 78 C 26.999977 78.431099 26.723684 78.813659 26.314453 78.949219 L 27.097656 86.005859 C 27.403698 86.035999 27.678856 86.205267 27.84375 86.464844 L 30.066406 85.353516 C 30.023085 85.24066 30.000586 85.120884 30 85 C 30 84.447715 30.447715 84 31 84 C 31.552285 84 32 84.447715 32 85 C 31.999541 85.403227 31.75695 85.766727 31.384766 85.921875 L 31.90625 88.005859 C 31.93739 88.002459 31.96868 88.0005 32 88 C 32.552285 88 33 88.447715 33 89 C 33 89.552285 32.552285 90 32 90 C 31.447715 90 31 89.552285 31 89 C 31.0006 88.709511 31.127487 88.43364 31.347656 88.244141 L 30.78125 85.974609 C 30.522638 85.916149 30.297829 85.757376 30.15625 85.533203 L 27.935547 86.644531 C 27.978434 86.758125 28.000274 86.87858 28 87 C 28 87.552285 27.552285 88 27 88 C 26.447715 88 26 87.552285 26 87 C 26.000485 86.64 26.194436 86.308046 26.507812 86.130859 L 25.710938 78.957031 C 25.288915 78.8296 25.000123 78.440843 25 78 C 25 77.447715 25.447715 77 26 77 C 26.07363 77.000385 26.14699 77.008901 26.21875 77.025391 L 29.589844 66.912109 C 29.23085 66.75066 28.999963 66.393627 29 66 C 29.00052 65.656273 29.177538 65.336902 29.46875 65.154297 L 28.875 60.992188 C 28.394361 60.931308 28.026499 60.534639 28.001953 60.050781 L 18.990234 51.039062 L 20.097656 61.005859 C 20.609248 61.056059 20.999445 61.485951 21 62 C 21 62.552285 20.552285 63 20 63 C 19.720288 63.000285 19.453242 62.883408 19.263672 62.677734 L 16.855469 64.484375 C 16.949625 64.639915 16.999594 64.818182 17 65 C 16.999806 65.438518 16.713935 65.825749 16.294922 65.955078 L 17.146484 77.011719 C 17.636496 77.08428 17.999538 77.504645 18 78 C 18 78.552285 17.552285 79 17 79 C 16.447715 79 16 78.552285 16 78 C 16.00069 77.621906 16.214565 77.27653 16.552734 77.107422 L 15.693359 65.953125 C 15.528722 65.900035 15.380671 65.805151 15.263672 65.677734 L 12.855469 67.484375 C 12.949625 67.639915 12.999594 67.818182 13 68 C 13 68.552285 12.552285 69 12 69 C 11.447715 69 11 68.552285 11 68 C 11.00074 67.646711 11.187838 67.320029 11.492188 67.140625 L 9.71875 52.958984 C 9.2929397 52.834187 9.0002887 52.443721 9 52 C 9 51.447715 9.4477153 51 10 51 C 10.552285 51 11 51.447715 11 52 C 10.999676 52.287203 10.875882 52.560402 10.660156 52.75 L 14.496094 58.121094 L 12.994141 45.355469 L 10.988281 45.855469 C 10.99568 45.903299 10.999596 45.951603 11 46 C 11 46.552285 10.552285 47 10 47 C 9.4477153 47 9 46.552285 9 46 C 9.00052 45.656273 9.1775383 45.336902 9.46875 45.154297 L 7.7265625 32.960938 C 7.2969609 32.838814 7.0004251 32.446622 7 32 C 7 31.447715 7.4477153 31 8 31 C 8.5522847 31 9 31.447715 9 32 C 8.9997474 32.424831 8.7310993 32.803132 8.3300781 32.943359 L 10.052734 45.001953 C 10.454853 45.023013 10.805112 45.283206 10.941406 45.662109 L 12.970703 45.154297 L 10.712891 25.957031 C 10.290094 25.830307 10.000383 25.44138 10 25 C 10 24.447715 10.447715 24 11 24 C 11.431099 24.000023 11.813659 24.276316 11.949219 24.685547 L 15.068359 23.994141 L 14.701172 19.955078 C 14.283705 19.824354 13.999663 19.437456 14 19 C 14 18.447715 14.447715 18 15 18 C 15.552285 18 16 18.447715 16 19 C 15.999172 19.434957 15.717282 19.819496 15.302734 19.951172 L 15.658203 23.863281 L 19.007812 23.117188 C 19.002915 23.078311 19.000306 23.039182 19 23 C 19 22.447715 19.447715 22 20 22 C 20.552285 22 21 22.447715 21 23 C 20.999358 23.142997 20.968053 23.284192 20.908203 23.414062 L 31.193359 29.414062 C 31.282539 29.290503 31.398782 29.188959 31.533203 29.117188 L 29.701172 8.9550781 C 29.283705 8.8243542 28.999663 8.4374557 29 8 C 29 7.4477153 29.447715 7 30 7 C 30.552285 7 31 7.4477153 31 8 C 30.999172 8.4349573 30.717282 8.8194961 30.302734 8.9511719 L 32.126953 29.007812 C 32.62619 29.071709 33.000141 29.496691 33 30 C 33 30.552285 32.552285 31 32 31 C 31.447715 31 31 30.552285 31 30 C 31.000642 29.857003 31.031947 29.715808 31.091797 29.585938 L 20.808594 23.585938 C 20.685997 23.755799 20.513151 23.882871 20.314453 23.949219 L 22.097656 40.005859 C 22.571279 40.052709 22.946257 40.426872 22.994141 40.900391 L 23.005859 40.900391 C 23.05699 40.389572 23.486628 40.000455 24 40 C 24.325866 40.000112 24.63124 40.158994 24.818359 40.425781 L 31.125 36.484375 C 31.04297 36.336114 30.999957 36.169441 31 36 C 31 35.447715 31.447715 35 32 35 C 32.463344 35.000196 32.86587 35.31866 32.972656 35.769531 L 43.033203 33.255859 C 43.011133 33.172364 42.999973 33.086362 43 33 C 43.00073 32.578627 43.265519 32.202925 43.662109 32.060547 L 41.144531 21.990234 C 41.096653 21.996979 41.04835 22.000243 41 22 C 40.683867 22.00031 40.386205 21.851117 40.197266 21.597656 L 36.902344 23.574219 C 36.965876 23.707215 36.999224 23.85261 37 24 C 37 24.552285 36.552285 25 36 25 C 35.447715 25 35 24.552285 35 24 C 35.000353 23.581348 35.261457 23.207229 35.654297 23.0625 L 35.654297 18.9375 C 35.261457 18.792771 35.000353 18.418652 35 18 C 35 17.447715 35.447715 17 36 17 C 36.552285 17 37 17.447715 37 18 C 37.000038 18.453776 36.69453 18.850694 36.255859 18.966797 L 36.255859 23.033203 C 36.474663 23.090833 36.667454 23.220971 36.802734 23.402344 L 40.095703 21.425781 C 40.032845 21.292631 40.000166 21.147242 40 21 C 39.999697 20.633622 40.199775 20.296412 40.521484 20.121094 L 39.705078 11.955078 C 39.286065 11.825749 39.000194 11.438518 39 11 C 39 10.447715 39.447715 10 40 10 C 40.552285 10 41 10.447715 41 11 C 40.999596 11.0484 40.995701 11.0967 40.988281 11.144531 L 45.986328 12.392578 L 45.673828 3.9453125 C 45.270588 3.8061775 44.999999 3.4265694 45 3 C 45 2.4477153 45.447715 2 46 2 z M 75 11 C 75.552285 11 76 11.447715 76 12 C 76.000038 12.453776 75.69453 12.850694 75.255859 12.966797 L 75.255859 20.033203 C 75.69453 20.149306 76.000038 20.546224 76 21 C 76 21.552285 75.552285 22 75 22 C 74.447715 22 74 21.552285 74 21 C 74.000353 20.581348 74.261457 20.207229 74.654297 20.0625 L 74.654297 12.9375 C 74.261457 12.792771 74.000353 12.418652 74 12 C 74 11.447715 74.447715 11 75 11 z M 40.939453 11.337891 C 40.835224 11.628814 40.602345 11.855204 40.308594 11.951172 L 41.113281 20.007812 C 41.617941 20.06535 41.999302 20.492071 42 21 C 42.000093 21.422089 41.735155 21.798786 41.337891 21.941406 L 43.855469 32.009766 C 43.903347 32.003021 43.95165 31.999757 44 32 C 44.23076 32.000245 44.454335 32.08029 44.632812 32.226562 L 46.226562 30.632812 C 46.08029 30.454334 46.000245 30.23076 46 30 C 46.000365 29.600546 46.238417 29.239628 46.605469 29.082031 L 45.994141 12.601562 L 40.939453 11.337891 z M 46.599609 12.753906 L 47.201172 29.021484 C 47.665827 29.11691 47.999507 29.525648 48 30 C 48 30.552285 47.552285 31 47 31 C 46.76924 30.999755 46.545665 30.919709 46.367188 30.773438 L 44.773438 32.367188 C 44.91971 32.545665 44.999755 32.76924 45 33 C 45.000001 33.111006 44.981523 33.221237 44.945312 33.326172 L 59.037109 37.732422 C 59.098309 37.511663 59.233444 37.318609 59.419922 37.185547 L 52.408203 24.912109 C 52.279836 24.969804 52.140736 24.999754 52 25 C 51.447715 25 51 24.552285 51 24 C 51.000353 23.581348 51.261457 23.207229 51.654297 23.0625 L 51.654297 14.9375 C 51.261457 14.792771 51.000353 14.418652 51 14 C 51.000404 13.9516 51.004299 13.9033 51.011719 13.855469 L 46.599609 12.753906 z M 19.050781 23.3125 L 15.677734 24.0625 L 16.126953 29.007812 C 16.62619 29.071709 17.000141 29.496691 17 30 C 16.999589 30.329746 16.836647 30.638093 16.564453 30.824219 L 21.474609 39.824219 L 19.710938 23.957031 C 19.399001 23.862602 19.152654 23.622085 19.050781 23.3125 z M 15.085938 24.193359 L 11.992188 24.882812 C 11.997087 24.921692 11.9997 24.960822 12 25 C 11.999698 25.429344 11.725365 25.81058 11.318359 25.947266 L 13.560547 45.005859 L 17.011719 44.142578 C 17.004426 44.095393 17.000497 44.047745 17 44 C 17 43.447715 17.447715 43 18 43 C 18.552285 43 19 43.447715 19 44 C 18.999977 44.431099 18.723684 44.813659 18.314453 44.949219 L 18.767578 49.027344 C 18.843715 49.009164 18.921723 48.999987 19 49 C 19.09317 49.000128 19.185862 49.013282 19.275391 49.039062 L 23.328125 41.742188 C 23.144767 41.575344 23.029918 41.346343 23.005859 41.099609 L 22.994141 41.099609 C 22.943007 41.61043 22.513372 41.999545 22 42 C 21.447715 42 21 41.552285 21 41 C 21.000411 40.670254 21.163353 40.361907 21.435547 40.175781 L 16.388672 30.921875 C 16.265627 30.973594 16.133473 31.000158 16 31 C 15.447715 31 15 30.552285 15 30 C 15.000575 29.629705 15.205727 29.29004 15.533203 29.117188 L 15.085938 24.193359 z M 75.939453 32.337891 C 75.828683 32.647058 75.57317 32.88213 75.255859 32.966797 L 75.255859 44.033203 C 75.69453 44.149306 76.000038 44.546224 76 45 C 76 45.552285 75.552285 46 75 46 C 74.818182 45.999594 74.639915 45.94962 74.484375 45.855469 L 69.677734 52.263672 C 69.795817 52.373445 69.885608 52.510141 69.939453 52.662109 L 80.009766 50.144531 C 80.003021 50.096653 79.999757 50.04835 80 50 C 80.000353 49.581348 80.261457 49.207229 80.654297 49.0625 L 80.654297 33.517578 L 75.939453 32.337891 z M 81.255859 33.667969 L 81.255859 49.033203 C 81.500211 49.097983 81.710961 49.252907 81.845703 49.466797 L 86.066406 47.355469 C 86.022853 47.241999 86.000349 47.121541 86 47 C 86.000353 46.581348 86.261457 46.207229 86.654297 46.0625 L 86.654297 35.9375 C 86.261457 35.792771 86.000353 35.418652 86 35 C 86.000404 34.9516 86.004299 34.9033 86.011719 34.855469 L 81.255859 33.667969 z M 91.439453 41.828125 L 87.712891 46.298828 C 87.89686 46.485845 87.999973 46.737664 88 47 C 88 47.552285 87.552285 48 87 48 C 86.656656 47.999902 86.337369 47.823668 86.154297 47.533203 L 81.933594 49.644531 C 81.977147 49.758001 81.999651 49.878459 82 50 C 82 50.552285 81.552285 51 81 51 C 80.577911 51.000093 80.201214 50.735155 80.058594 50.337891 L 69.990234 52.855469 C 69.996934 52.903349 70.00021 52.951649 70 53 C 69.999756 53.385578 69.777856 53.736666 69.429688 53.902344 L 72.146484 72.011719 C 72.32501 72.038139 72.493059 72.112376 72.632812 72.226562 L 74.226562 70.632812 C 74.080257 70.454335 74.000245 70.23076 74 70 C 74 69.447715 74.447715 69 75 69 C 75.552285 69 76 69.447715 76 70 C 75.999651 70.121541 75.977154 70.241999 75.933594 70.355469 L 86.15625 75.464844 C 86.273685 75.279771 86.448673 75.138408 86.654297 75.0625 L 86.654297 65.9375 C 86.261461 65.792771 86.000353 65.418652 86 65 C 86 64.447715 86.447715 64 87 64 C 87.552285 64 88 64.447715 88 65 C 87.999872 65.09317 87.986717 65.185862 87.960938 65.275391 L 91.115234 66.537109 C 91.229947 66.31761 91.422037 66.14849 91.654297 66.0625 L 91.654297 41.9375 C 91.578537 41.90984 91.506395 41.87311 91.439453 41.828125 z M 17.058594 44.339844 L 13.583984 45.207031 L 15.089844 58.005859 C 15.604528 58.052287 15.999062 58.483227 16 59 C 16 59.552285 15.552285 60 15 60 C 14.447715 60 14 59.552285 14 59 C 13.999763 58.712116 14.123606 58.438095 14.339844 58.248047 L 10.496094 52.867188 C 10.440224 52.899487 10.381354 52.926306 10.320312 52.947266 L 12.078125 67.003906 C 12.329155 67.023616 12.563509 67.137308 12.734375 67.322266 L 15.144531 65.515625 C 15.050375 65.360083 15.000406 65.181818 15 65 C 15 64.447715 15.447715 64 16 64 C 16.279712 63.999715 16.546758 64.116592 16.736328 64.322266 L 19.144531 62.515625 C 19.050375 62.360085 19.000406 62.181818 19 62 C 19.000485 61.64 19.194436 61.308046 19.507812 61.130859 L 18.355469 50.763672 C 18.130316 50.573871 18.000267 50.294479 18 50 C 18.000137 49.782069 18.07146 49.570148 18.203125 49.396484 L 17.710938 44.957031 C 17.408147 44.866001 17.166244 44.637133 17.058594 44.339844 z M 44.59375 58.708984 L 39.041016 59.466797 L 40.132812 72.009766 C 40.628986 72.076253 40.999546 72.499391 41 73 C 40.999563 73.332227 40.834157 73.642545 40.558594 73.828125 L 46.554688 84.962891 L 46.554688 70.894531 C 46.215131 70.725654 46.00032 70.379233 46 70 C 46.000521 69.708516 46.128197 69.431766 46.349609 69.242188 L 44.59375 58.708984 z M 74.367188 70.773438 L 72.773438 72.367188 C 72.919709 72.545665 72.999755 72.76924 73 73 C 72.999416 73.401572 72.758671 73.763843 72.388672 73.919922 L 73.261719 87.035156 C 73.397507 87.072136 73.523961 87.137358 73.632812 87.226562 L 74.226562 86.632812 C 74.080291 86.454335 74.000245 86.23076 74 86 C 74.000353 85.581348 74.261457 85.207229 74.654297 85.0625 L 74.654297 70.9375 C 74.550153 70.89912 74.453123 70.84368 74.367188 70.773438 z " />
  </g>
</svg>
